<svg xmlns="http://www.w3.org/2000/svg" width="42" height="42" viewBox="0 0 42 42">
  <g id="Grupo_382" data-name="Grupo 382" transform="translate(-36 -246)">
    <circle id="Elipse_100" data-name="Elipse 100" cx="21" cy="21" r="21" transform="translate(36 246)" fill="#ff7900"/>
    <g id="Page-1" transform="translate(47.935 255.119)">
      <g id="_019---Oil-Can" data-name="019---Oil-Can" transform="translate(0 0)">
        <path id="Shape" d="M25.1.382h-6.12a1.915,1.915,0,0,0-1.912,1.912v18.36a2.3,2.3,0,0,0,2.295,2.295H31.984a2.3,2.3,0,0,0,2.295-2.295V8.982a2.659,2.659,0,0,0-.784-1.893l-.112-.112.356-.354a1.533,1.533,0,0,0,.229-1.856l.806-.8a3.053,3.053,0,0,1,2.182-.9,1.53,1.53,0,0,0,0-3.06,6.122,6.122,0,0,0-4.348,1.8l-.8.8a1.534,1.534,0,0,0-1.857.233l-.374.379a2.657,2.657,0,0,0-1.6-.536h-.962V2.295A1.915,1.915,0,0,0,25.1.382Zm8.05,1.958A5.36,5.36,0,0,1,36.957.765a.765.765,0,1,1,0,1.53,3.81,3.81,0,0,0-2.722,1.129l-.765.763L32.387,3.105ZM31.576,3.376,33.2,5a.771.771,0,0,1,0,1.085l-.357.355-2.7-2.7.354-.356A.771.771,0,0,1,31.576,3.376ZM29.326,4l3.626,3.626a1.9,1.9,0,0,1,.562,1.354V20.654a1.53,1.53,0,0,1-1.53,1.53H19.362a1.53,1.53,0,0,1-1.53-1.53V2.295a1.147,1.147,0,0,1,1.147-1.147H25.1a1.147,1.147,0,0,1,1.147,1.147V3.06a.382.382,0,0,0,.382.382h1.344A1.9,1.9,0,0,1,29.326,4Z" transform="translate(-17.067 0)" fill="#fff"/>
        <path id="Shape-2" data-name="Shape" d="M57.32,46.109a.765.765,0,0,0,.765-.765V43.432a.765.765,0,0,0-.765-.765H51.965a.765.765,0,0,0-.765.765v1.912a.765.765,0,0,0,.765.765Zm-5.355-2.677H57.32v1.912H51.965Z" transform="translate(-49.67 -40.754)" fill="#fff"/>
        <path id="Shape-3" data-name="Shape" d="M76.8,189.263v8.8a1.53,1.53,0,0,0,1.53,1.53h8.8a1.53,1.53,0,0,0,1.53-1.53v-8.8a1.53,1.53,0,0,0-1.53-1.53h-8.8A1.53,1.53,0,0,0,76.8,189.263Zm11.092,0v8.8a.765.765,0,0,1-.765.765h-8.8a.765.765,0,0,1-.765-.765v-8.8a.765.765,0,0,1,.765-.765h8.8A.765.765,0,0,1,87.892,189.263Z" transform="translate(-74.123 -179.318)" fill="#fff"/>
        <path id="Shape-4" data-name="Shape" d="M139.784,230.661a3.164,3.164,0,0,0,3.251-3.06c0-1.273-1.733-4.284-2.456-5.328a.976.976,0,0,0-1.59,0c-.723,1.044-2.456,4.055-2.456,5.328A3.164,3.164,0,0,0,139.784,230.661Zm-.166-7.952a.212.212,0,0,1,.333,0c.934,1.346,2.319,3.994,2.319,4.892a2.494,2.494,0,0,1-4.972,0C137.3,226.7,138.684,224.056,139.618,222.71Z" transform="translate(-131.178 -211.919)" fill="#fff"/>
        <path id="Shape-5" data-name="Shape" d="M172.388,343.245a.382.382,0,0,0,0-.765.88.88,0,0,1-.956-.765.382.382,0,1,0-.765,0A1.636,1.636,0,0,0,172.388,343.245Z" transform="translate(-163.782 -326.033)" fill="#fff"/>
        <path id="Shape-6" data-name="Shape" d="M61.263,145.449a.382.382,0,0,0-.383-.382h-.765a.382.382,0,1,0,0,.765h.765A.382.382,0,0,0,61.263,145.449Z" transform="translate(-57.821 -138.565)" fill="#fff"/>
        <path id="Shape-7" data-name="Shape" d="M110.933,145.449a.383.383,0,0,0,.383.382h6.5a.382.382,0,1,0,0-.765h-6.5A.382.382,0,0,0,110.933,145.449Z" transform="translate(-106.726 -138.565)" fill="#fff"/>
      </g>
    </g>
  </g>
</svg>
