<svg xmlns="http://www.w3.org/2000/svg" width="42" height="42" viewBox="0 0 42 42">
  <g id="Grupo_379" data-name="Grupo 379" transform="translate(-36 -190)">
    <circle id="Elipse_43" data-name="Elipse 43" cx="21" cy="21" r="21" transform="translate(36 190)" fill="#ff7900"/>
    <path id="ic_directions_car_24px" d="M22.9,6.263A1.868,1.868,0,0,0,21.125,5H7.375A1.88,1.88,0,0,0,5.6,6.263L3,13.75v10A1.254,1.254,0,0,0,4.25,25H5.5a1.254,1.254,0,0,0,1.25-1.25V22.5h15v1.25A1.254,1.254,0,0,0,23,25h1.25a1.254,1.254,0,0,0,1.25-1.25v-10ZM7.375,18.75A1.875,1.875,0,1,1,9.25,16.875,1.872,1.872,0,0,1,7.375,18.75Zm13.75,0A1.875,1.875,0,1,1,23,16.875,1.872,1.872,0,0,1,21.125,18.75ZM5.5,12.5,7.375,6.875h13.75L23,12.5Z" transform="translate(42.75 196)" fill="#fff"/>
  </g>
</svg>
