<svg xmlns="http://www.w3.org/2000/svg" width="68" height="68" viewBox="0 0 68 68">
  <g id="Grupo_376" data-name="Grupo 376" transform="translate(-68 -438)">
    <circle id="Elipse_47" data-name="Elipse 47" cx="34" cy="34" r="34" transform="translate(68 438)" fill="#ff7900"/>
    <path id="ic_directions_car_24px" d="M35.219,7.044A3.024,3.024,0,0,0,32.345,5H10.083A3.043,3.043,0,0,0,7.21,7.044L3,19.167v16.19a2.03,2.03,0,0,0,2.024,2.024H7.048a2.03,2.03,0,0,0,2.024-2.024V33.333H33.357v2.024a2.03,2.03,0,0,0,2.024,2.024H37.4a2.03,2.03,0,0,0,2.024-2.024V19.167ZM10.083,27.262a3.036,3.036,0,1,1,3.036-3.036A3.032,3.032,0,0,1,10.083,27.262Zm22.262,0a3.036,3.036,0,1,1,3.036-3.036A3.032,3.032,0,0,1,32.345,27.262ZM7.048,17.143l3.036-9.107H32.345l3.036,9.107Z" transform="translate(80.786 450.81)" fill="#fff"/>
  </g>
</svg>
