<svg xmlns="http://www.w3.org/2000/svg" width="68" height="68" viewBox="0 0 68 68">
  <g id="Grupo_375" data-name="Grupo 375" transform="translate(-240 -272)">
    <circle id="Elipse_46" data-name="Elipse 46" cx="34" cy="34" r="34" transform="translate(240 272)" fill="#ff7900"/>
    <path id="ic_library_books_24px" d="M5.238,8.476H2V31.143a3.248,3.248,0,0,0,3.238,3.238H27.9V31.143H5.238ZM31.143,2H11.714A3.248,3.248,0,0,0,8.476,5.238V24.667A3.248,3.248,0,0,0,11.714,27.9H31.143a3.248,3.248,0,0,0,3.238-3.238V5.238A3.248,3.248,0,0,0,31.143,2ZM29.524,16.571H13.333V13.333h16.19Zm-6.476,6.476H13.333V19.81h9.714ZM29.524,10.1H13.333V6.857h16.19Z" transform="translate(256 287.81)" fill="#fff"/>
  </g>
</svg>
