<svg xmlns="http://www.w3.org/2000/svg" width="42" height="42" viewBox="0 0 42 42">
  <g id="Grupo_385" data-name="Grupo 385" transform="translate(-36 -435)">
    <circle id="Elipse_108" data-name="Elipse 108" cx="21" cy="21" r="21" transform="translate(36 435)" fill="#ff7900"/>
    <g id="Grupo_284" data-name="Grupo 284" transform="translate(-564.488 406.514)">
      <path id="Trazado_194" data-name="Trazado 194" d="M629.809,58.807c.044-.044.087-.089.13-.133a12.4,12.4,0,0,0,3.528-8.7s0-.006,0-.01c0-.086,0-.172,0-.258,0-.045,0-.09,0-.135s0-.071,0-.106A12.488,12.488,0,0,0,621.534,37.5l-.077,0-.193-.006q-.144,0-.287,0h-.011l-.257,0-.135,0-.106,0A12.488,12.488,0,0,0,608.5,49.419c0,.025,0,.051,0,.076,0,.064-.005.129-.006.193q0,.144,0,.287a12.408,12.408,0,0,0,3.658,8.831,12.582,12.582,0,0,0,2.269,1.8,12.463,12.463,0,0,0,15.3-1.712Zm-10.58-20.135v0q.537-.083,1.08-.116h.013l.159-.008.127,0,.113,0c.082,0,.164,0,.247,0h.009q.139,0,.277,0l.145.005.121,0,.213.012.044,0a11.506,11.506,0,0,1,1.295.166h0a11.466,11.466,0,0,1,9.208,9.5h0q.082.532.115,1.07l0,.026c0,.051.005.1.007.152s0,.091.005.136,0,.07,0,.105c0,.086,0,.172,0,.259a11.437,11.437,0,1,1-22.873,0c0-.093,0-.186,0-.279,0-.043,0-.085,0-.127s0-.093.005-.139c0-.067.007-.134.012-.2,0-.019,0-.037,0-.056a11.459,11.459,0,0,1,.166-1.292h0A11.466,11.466,0,0,1,619.229,38.672Z" transform="translate(0 0)" fill="#fff"/>
      <path id="Trazado_195" data-name="Trazado 195" d="M732.062,154.744a6.318,6.318,0,0,0-2.53,12.106.526.526,0,1,0,.422-.964,5.264,5.264,0,1,1,4.217,0,.526.526,0,0,0,.422.964,6.318,6.318,0,0,0-2.531-12.106Z" transform="translate(-111.084 -111.085)" fill="#fff"/>
      <path id="Trazado_196" data-name="Trazado 196" d="M836.793,195.271a.526.526,0,0,0-.526-.526h0a.526.526,0,1,0,.527.526Z" transform="translate(-215.289 -148.981)" fill="#fff"/>
      <path id="Trazado_197" data-name="Trazado 197" d="M801.045,204.169h0a.526.526,0,1,0,.7.257.526.526,0,0,0-.7-.257Z" transform="translate(-182.13 -157.863)" fill="#fff"/>
      <path id="Trazado_198" data-name="Trazado 198" d="M775.937,229.832a.526.526,0,0,0-.73.146h0a.526.526,0,1,0,.73-.146Z" transform="translate(-157.859 -182.137)" fill="#fff"/>
      <path id="Trazado_199" data-name="Trazado 199" d="M766.8,265.27a.526.526,0,1,0-1.053,0h0a.526.526,0,1,0,1.053,0Z" transform="translate(-148.979 -215.295)" fill="#fff"/>
      <path id="Trazado_200" data-name="Trazado 200" d="M775.177,300.5a.526.526,0,1,0,.235-.707.526.526,0,0,0-.235.707Z" transform="translate(-157.861 -248.448)" fill="#fff"/>
      <path id="Trazado_201" data-name="Trazado 201" d="M801.545,325.439a.526.526,0,0,0-.552.9h0a.526.526,0,0,0,.552-.9Z" transform="translate(-182.134 -272.721)" fill="#fff"/>
      <path id="Trazado_202" data-name="Trazado 202" d="M836.271,335.794a.526.526,0,1,0-.527-.526.526.526,0,0,0,.527.526Z" transform="translate(-215.293 -281.607)" fill="#fff"/>
      <path id="Trazado_203" data-name="Trazado 203" d="M871.543,326.336h0a.526.526,0,1,0-.276.078.526.526,0,0,0,.276-.078Z" transform="translate(-248.447 -272.721)" fill="#fff"/>
      <path id="Trazado_204" data-name="Trazado 204" d="M897.154,299.811a.527.527,0,1,0,.189.72h0a.526.526,0,0,0-.19-.72Z" transform="translate(-272.72 -248.448)" fill="#fff"/>
      <path id="Trazado_205" data-name="Trazado 205" d="M906.794,265.267h0a.526.526,0,1,0-.526.527A.526.526,0,0,0,906.794,265.266Z" transform="translate(-281.605 -215.291)" fill="#fff"/>
      <path id="Trazado_206" data-name="Trazado 206" d="M897.326,229.972a.527.527,0,1,0-.146.73.526.526,0,0,0,.146-.73Z" transform="translate(-272.719 -182.132)" fill="#fff"/>
      <path id="Trazado_207" data-name="Trazado 207" d="M871.265,205.172a.527.527,0,0,0,.276-.975h0a.526.526,0,1,0-.276.975Z" transform="translate(-248.446 -157.861)" fill="#fff"/>
      <path id="Trazado_208" data-name="Trazado 208" d="M805.744,236.849a2.106,2.106,0,1,0,2.106-2.106A2.108,2.108,0,0,0,805.744,236.849Zm2.106-1.053a1.053,1.053,0,1,1-1.053,1.053A1.054,1.054,0,0,1,807.85,235.8Z" transform="translate(-186.872 -186.873)" fill="#fff"/>
      <path id="Trazado_209" data-name="Trazado 209" d="M826.691,82.663a.526.526,0,0,0,.719-.193l.981-1.7a.526.526,0,0,0-.912-.526l-.981,1.7A.526.526,0,0,0,826.691,82.663Z" transform="translate(-206.467 -40.259)" fill="#fff"/>
      <path id="Trazado_210" data-name="Trazado 210" d="M653.2,257.462a.527.527,0,0,0,.264-.982l-1.7-.981a.526.526,0,0,0-.526.912l1.7.981A.524.524,0,0,0,653.2,257.462Z" transform="translate(-40.255 -206.469)" fill="#fff"/>
      <path id="Trazado_211" data-name="Trazado 211" d="M673.567,349.057h-1.961a.526.526,0,0,0,0,1.053h1.961a.526.526,0,1,0,0-1.053Z" transform="translate(-59.296 -295.169)" fill="#fff"/>
      <path id="Trazado_212" data-name="Trazado 212" d="M737.258,401.534l-1.7.981a.526.526,0,1,0,.526.912l1.7-.981a.526.526,0,0,0-.526-.912Z" transform="translate(-120.133 -344.817)" fill="#fff"/>
      <path id="Trazado_213" data-name="Trazado 213" d="M753.348,102.182a.526.526,0,0,0,.987-.247l.032-1.961a.526.526,0,1,0-1.053-.017l-.032,1.961A.525.525,0,0,0,753.348,102.182Z" transform="translate(-137.172 -58.692)" fill="#fff"/>
      <path id="Trazado_214" data-name="Trazado 214" d="M683.749,164.465l-.953-1.714a.526.526,0,1,0-.92.511l.953,1.714a.526.526,0,0,0,.92-.511Z" transform="translate(-69.462 -118.414)" fill="#fff"/>
      <path id="Trazado_215" data-name="Trazado 215" d="M828.2,417.31a.526.526,0,0,0-.719.193l-.981,1.7a.526.526,0,1,0,.912.526l.981-1.7a.526.526,0,0,0-.193-.719Z" transform="translate(-206.468 -359.763)" fill="#fff"/>
      <path id="Trazado_216" data-name="Trazado 216" d="M920.583,392.152a.526.526,0,0,0-.526.526v1.961a.526.526,0,0,0,1.053,0v-1.961A.526.526,0,0,0,920.583,392.152Z" transform="translate(-295.168 -335.996)" fill="#fff"/>
      <path id="Trazado_217" data-name="Trazado 217" d="M973.447,333.186a.526.526,0,1,0-.912.526l.981,1.7a.526.526,0,0,0,.912-.526Z" transform="translate(-344.816 -279.885)" fill="#fff"/>
      <path id="Trazado_218" data-name="Trazado 218" d="M990.725,256.48l-1.7-.981a.526.526,0,1,0-.526.912l1.7.981a.526.526,0,1,0,.526-.912Z" transform="translate(-359.758 -206.47)" fill="#fff"/>
      <path id="Trazado_219" data-name="Trazado 219" d="M965.64,181.483a.526.526,0,0,0,0-1.053h-1.961a.526.526,0,1,0,0,1.053Z" transform="translate(-335.994 -135.419)" fill="#fff"/>
      <path id="Trazado_220" data-name="Trazado 220" d="M904.45,111.425a.524.524,0,0,0,.263-.071l1.7-.981a.526.526,0,1,0-.526-.912l-1.7.981a.526.526,0,0,0,.264.982Z" transform="translate(-279.883 -68.12)" fill="#fff"/>
      <path id="Trazado_221" data-name="Trazado 221" d="M836.274,375.795a.526.526,0,1,0,0-1.053h0a.526.526,0,0,0,0,1.053Z" transform="translate(-215.297 -319.502)" fill="#fff"/>
    </g>
  </g>
</svg>
