<svg id="Grupo_341" data-name="Grupo 341" xmlns="http://www.w3.org/2000/svg" width="12.039" height="23.623" viewBox="0 0 12.039 23.623">
  <path id="Trazado_36" data-name="Trazado 36" d="M146.937,28.6c-.117,0-.192.014-.267.014-1.6,0-3.2,0-4.805,0-.225,0-.286-.061-.286-.286q.007-5.6,0-11.2v-.323H139V12.829h.253c.7,0,1.406,0,2.11,0,.178,0,.225-.052.225-.225-.009-1.045-.009-2.1,0-3.141a4.612,4.612,0,0,1,.459-2.1A4,4,0,0,1,144.26,5.45a6.97,6.97,0,0,1,2.452-.436C148.071,5,149.431,5,150.79,5c.127,0,.23,0,.23.173q-.007,1.934,0,3.868a.381.381,0,0,1-.023.089h-.258c-.844,0-1.688,0-2.531,0a1.227,1.227,0,0,0-1.13.623.9.9,0,0,0-.122.441c-.014.8,0,1.594-.009,2.391,0,.188.056.239.239.239,1.172-.009,2.344,0,3.516,0h.342c-.164,1.341-.323,2.653-.488,3.98h-3.614Z" transform="translate(-139 -5)" fill="#fff"/>
</svg>
