<svg id="Grupo_340" data-name="Grupo 340" xmlns="http://www.w3.org/2000/svg" width="23.08" height="23.623" viewBox="0 0 23.08 23.623">
  <path id="Trazado_35" data-name="Trazado 35" d="M34.227,9.959c-1.144,1.144-2.283,2.278-3.4,3.394-.482-.284-.95-.61-1.46-.846a6.7,6.7,0,0,0-5.842,0,6.628,6.628,0,0,0-3.677,4.122,6.76,6.76,0,0,0,1.191,6.584,6.651,6.651,0,0,0,4.443,2.519,7.563,7.563,0,0,0,3.937-.468,5.3,5.3,0,0,0,3.342-3.9c0-.028,0-.061.009-.118H26.48V16.689c.1,0,.2-.014.3-.014,3.465,0,6.934,0,10.4-.009.269,0,.326.118.364.331a11.018,11.018,0,0,1,.137,3.153,13.1,13.1,0,0,1-.822,3.55,10.524,10.524,0,0,1-4.471,5.317A11.8,11.8,0,0,1,17.557,26.6a11.525,11.525,0,0,1-2.463-4.575,11.911,11.911,0,0,1-.269-5.194,11.494,11.494,0,0,1,2.595-5.606,11.414,11.414,0,0,1,6.045-3.814A11.55,11.55,0,0,1,32,8.422,12.106,12.106,0,0,1,34.227,9.959Z" transform="translate(-14.657 -7.015)" fill="#fff"/>
</svg>
