<svg xmlns="http://www.w3.org/2000/svg" width="68" height="68" viewBox="0 0 68 68">
  <g id="Grupo_377" data-name="Grupo 377" transform="translate(-239 -441)">
    <circle id="Elipse_48" data-name="Elipse 48" cx="34" cy="34" r="34" transform="translate(239 441)" fill="#ff7900"/>
    <path id="ic_perm_identity_24px" d="M21,8.038A4.463,4.463,0,1,1,16.538,12.5,4.462,4.462,0,0,1,21,8.038m0,19.125c6.311,0,12.963,3.1,12.963,4.463v2.337H8.038V31.625c0-1.36,6.651-4.463,12.962-4.463M21,4a8.5,8.5,0,1,0,8.5,8.5A8.5,8.5,0,0,0,21,4Zm0,19.125c-5.674,0-17,2.848-17,8.5V38H38V31.625C38,25.973,26.674,23.125,21,23.125Z" transform="translate(252 454.81)" fill="#fff"/>
  </g>
</svg>
