<svg xmlns="http://www.w3.org/2000/svg" width="42" height="42" viewBox="0 0 42 42">
  <g id="Grupo_388" data-name="Grupo 388" transform="translate(-33 -617)">
    <circle id="Elipse_38" data-name="Elipse 38" cx="21" cy="21" r="21" transform="translate(33 617)" fill="#ff7900"/>
    <g id="Grupo_245" data-name="Grupo 245" transform="translate(40.349 626.079)">
      <path id="Trazado_138" data-name="Trazado 138" d="M26.082,42.142l-4.666-4.666a1.916,1.916,0,0,0-2.506-.188l-2.521,1.859a.39.39,0,0,0-.044.59l.608.607-2.669,2.669H12.366L9.7,40.343l.608-.608a.39.39,0,0,0-.044-.59L7.739,37.287a1.915,1.915,0,0,0-2.506.188l-.739.739a.39.39,0,1,0,.552.552l.739-.739a1.139,1.139,0,0,1,1.491-.112l.839.618-6.49,6.49-.618-.838a1.141,1.141,0,0,1,.112-1.491L3.943,39.87a.39.39,0,1,0-.552-.552L.567,42.142a1.917,1.917,0,0,0-.189,2.506l1.859,2.521a.39.39,0,0,0,.285.158h.029a.391.391,0,0,0,.276-.114l.608-.608.453.453a4.355,4.355,0,0,0,2,7.578,3.339,3.339,0,0,0,2.149,2.515v1.4a1.162,1.162,0,0,0,2.257.39h.559a1.162,1.162,0,0,0,2.19,0H13.6a1.162,1.162,0,0,0,2.19,0h.559a1.162,1.162,0,0,0,2.257-.39V55.485A2.832,2.832,0,0,0,20.2,54.71a4.335,4.335,0,0,0,2.177-.748.39.39,0,0,0-.44-.645,3.559,3.559,0,0,1-1.118.507,2.817,2.817,0,0,0,.234-.907,2.793,2.793,0,0,0,.6-4.75l.555-.555a3.57,3.57,0,0,1,.707,4.7.39.39,0,0,0,.653.428,4.349,4.349,0,0,0-.806-5.686l.453-.453.608.608a.39.39,0,0,0,.276.114h.029a.39.39,0,0,0,.285-.158l1.859-2.521a1.916,1.916,0,0,0-.188-2.506Zm-6.293,3.6a.364.364,0,0,1,.107-.259l1.1-1.1.519.519-1.1,1.1a.367.367,0,0,1-.626-.259Zm-.966-3.532.347.347-1.1,1.1a.367.367,0,1,1-.519-.519l1.1-1.1ZM17.5,40.9l.6.6L17,42.59a1.147,1.147,0,1,0,1.623,1.623l1.1-1.1.723.723-1.1,1.1a1.147,1.147,0,1,0,1.623,1.623l1.1-1.1.6.6-2.507,2.507L15,43.4ZM15.862,55.513h.424v2.65h-.424Zm-2.679-.781,2.2-2.16c0,.033,0,.067,0,.1a2.831,2.831,0,0,0,.888,2.06ZM10.364,57.12a3.31,3.31,0,0,0,.424-.2v1.244h-.424Zm2.749-1.607h.424v2.65h-.424Zm-.64-1.178c.01-.1.016-.21.016-.317A3.332,3.332,0,0,0,9.16,50.69c-.072,0-.143,0-.214.008l2.176-2.128a2.209,2.209,0,0,0,4.412-.158c0-.052,0-.1-.006-.155l2.239,1.612a2.835,2.835,0,0,0-1.553.795v0ZM5.554,48.725l.6.6.732,2.272a3.352,3.352,0,0,0-.588.734,2.031,2.031,0,0,1-1.582-1.967A2.009,2.009,0,0,1,5.554,48.725Zm7.771-1.741A1.428,1.428,0,1,1,11.9,48.412a1.43,1.43,0,0,1,1.428-1.428Zm6.1,3.118s-4.718-3.414-4.773-3.455a2.2,2.2,0,0,0-2.818.139L7.514,51.006,6.939,49.22l5.427-5.427h1.918l5.427,5.427-.284.883ZM5.653,44.388l1.1,1.1a.367.367,0,1,1-.519.519l-1.1-1.1ZM2.6,46.34l-.5-.682L8.75,39l.681.5Zm1.986-.882,1.1,1.1A1.147,1.147,0,1,0,7.3,44.935l-1.1-1.1.009-.009.714-.714,1.1,1.1A1.147,1.147,0,1,0,9.65,42.59l-1.1-1.1.6-.6L11.652,43.4,6.494,48.561,3.987,46.054ZM8,42.042l1.1,1.1a.367.367,0,0,1-.519.519l-1.1-1.1ZM3.151,50.361a3.58,3.58,0,0,1,1.291-2.749L5,48.167a2.8,2.8,0,0,0,.978,4.885,3.307,3.307,0,0,0-.137.773A3.583,3.583,0,0,1,3.151,50.361Zm3.461,3.657A2.547,2.547,0,1,1,9.16,56.566,2.55,2.55,0,0,1,6.612,54.018ZM9.2,58.936a.382.382,0,0,1-.382-.382V57.329a3.289,3.289,0,0,0,.764-.011v1.235A.383.383,0,0,1,9.2,58.936Zm2.749,0a.382.382,0,0,1-.382-.382V56.317l.764-.75v2.987a.383.383,0,0,1-.382.382Zm2.749,0a.382.382,0,0,1-.382-.382V55.513h.764v3.041A.382.382,0,0,1,14.7,58.936Zm2.749,0a.382.382,0,0,1-.382-.382V55.513h.764v3.041A.382.382,0,0,1,17.448,58.936Zm.772-4.2a2.059,2.059,0,1,1,2.059-2.059A2.062,2.062,0,0,1,18.22,54.732Zm3.716-4.371a2.009,2.009,0,0,1-.942,1.7,2.841,2.841,0,0,0-.891-1.517l.395-1.227.6-.6a2.009,2.009,0,0,1,.841,1.636Zm2.117-4.021L17.218,39.5,17.9,39l6.656,6.656Zm1.589-2.156-.618.839-6.49-6.49.839-.618a1.14,1.14,0,0,1,1.491.112l4.666,4.666a1.14,1.14,0,0,1,.112,1.491Z" transform="translate(0.001 -36.907)" fill="#fff"/>
      <path id="Trazado_139" data-name="Trazado 139" d="M155.712,344.172a1.178,1.178,0,1,0-1.178,1.178A1.179,1.179,0,0,0,155.712,344.172Zm-1.575,0a.4.4,0,1,1,.4.4A.4.4,0,0,1,154.137,344.172Z" transform="translate(-145.373 -327.061)" fill="#fff"/>
      <path id="Trazado_140" data-name="Trazado 140" d="M328.589,317.145a1.178,1.178,0,1,0,1.178,1.178A1.179,1.179,0,0,0,328.589,317.145Zm0,1.576a.4.4,0,1,1,.4-.4A.4.4,0,0,1,328.589,318.72Z" transform="translate(-310.368 -302.558)" fill="#fff"/>
    </g>
  </g>
</svg>
