<svg xmlns="http://www.w3.org/2000/svg" width="42" height="42" viewBox="0 0 42 42">
  <g id="Grupo_380" data-name="Grupo 380" transform="translate(-36 -501)">
    <circle id="Elipse_32" data-name="Elipse 32" cx="21" cy="21" r="21" transform="translate(36 501)" fill="#ff7900"/>
    <g id="Grupo_227" data-name="Grupo 227" transform="translate(43.078 510.559)">
      <path id="Trazado_138" data-name="Trazado 138" d="M26.951,42.316l-4.822-4.822a1.979,1.979,0,0,0-2.59-.195l-2.6,1.921a.4.4,0,0,0-.046.61l.628.628-2.758,2.758H12.777L10.02,40.457l.628-.628a.4.4,0,0,0-.046-.61L8,37.3a1.979,1.979,0,0,0-2.589.195l-.763.764a.4.4,0,0,0,.57.57l.764-.764a1.177,1.177,0,0,1,1.54-.116l.867.639L1.679,45.293l-.639-.866a1.179,1.179,0,0,1,.116-1.541l2.918-2.918a.4.4,0,1,0-.57-.57L.586,42.316a1.98,1.98,0,0,0-.195,2.59l1.921,2.6a.4.4,0,0,0,.294.163h.03a.4.4,0,0,0,.285-.118l.628-.628.468.468a4.5,4.5,0,0,0,2.069,7.83,3.45,3.45,0,0,0,2.221,2.6v1.449a1.2,1.2,0,0,0,2.333.4h.577a1.2,1.2,0,0,0,2.263,0h.578a1.2,1.2,0,0,0,2.263,0H16.9a1.2,1.2,0,0,0,2.332-.4V56.1a2.926,2.926,0,0,0,1.638-.8,4.48,4.48,0,0,0,2.25-.773.4.4,0,0,0-.455-.666,3.677,3.677,0,0,1-1.155.524,2.91,2.91,0,0,0,.241-.937,2.886,2.886,0,0,0,.624-4.908l.574-.574a3.688,3.688,0,0,1,.731,4.861.4.4,0,0,0,.674.443,4.494,4.494,0,0,0-.833-5.875l.469-.469.628.628a.4.4,0,0,0,.285.118h.03a.4.4,0,0,0,.294-.163l1.92-2.6a1.979,1.979,0,0,0-.195-2.59Zm-6.5,3.725a.377.377,0,0,1,.111-.268L21.7,44.637l.536.536L21.1,46.309a.379.379,0,0,1-.647-.268Zm-1-3.65.358.358-1.136,1.136a.379.379,0,0,1-.536-.536l1.136-1.136Zm-1.363-1.363.615.615-1.136,1.136a1.186,1.186,0,1,0,1.677,1.677l1.136-1.136.747.747L19.989,45.2a1.186,1.186,0,1,0,1.677,1.677L22.8,45.743l.615.615-2.59,2.591-5.33-5.33Zm-1.7,15.1h.438v2.739h-.438Zm-2.768-.807,2.273-2.232c0,.034,0,.069,0,.1a2.926,2.926,0,0,0,.917,2.128Zm-2.912,2.467a3.419,3.419,0,0,0,.438-.207v1.285h-.438Zm2.84-1.66h.438v2.739h-.438Zm-.662-1.217c.01-.108.016-.217.016-.328a3.443,3.443,0,0,0-3.439-3.439c-.074,0-.148,0-.221.008l2.248-2.2a2.282,2.282,0,0,0,4.558-.163c0-.054,0-.107-.006-.16L18.358,50.3a2.93,2.93,0,0,0-1.6.821v0Zm-7.149-5.8.617.617.756,2.347a3.464,3.464,0,0,0-.608.758A2.1,2.1,0,0,1,4.87,50.809,2.076,2.076,0,0,1,5.739,49.118Zm8.029-1.8a1.476,1.476,0,1,1-1.476,1.476,1.478,1.478,0,0,1,1.476-1.476Zm6.3,3.222s-4.875-3.528-4.932-3.57a2.278,2.278,0,0,0-2.912.143L7.764,51.475,7.17,49.63l5.608-5.608h1.982l5.608,5.608-.294.912Zm-14.229-5.9,1.136,1.136a.379.379,0,1,1-.536.536L5.3,45.173ZM2.683,46.654l-.519-.7,6.878-6.878.7.519Zm2.052-.911,1.136,1.136A1.186,1.186,0,1,0,7.548,45.2L6.411,44.066l.009-.009.737-.737,1.136,1.136a1.186,1.186,0,0,0,1.677-1.677L8.835,41.643l.615-.615,2.591,2.591-5.33,5.33-2.59-2.59Zm3.53-3.53L9.4,43.35a.379.379,0,0,1-.536.536L7.728,42.749Zm-5.008,8.6a3.7,3.7,0,0,1,1.334-2.84l.574.574A2.888,2.888,0,0,0,6.174,53.59a3.417,3.417,0,0,0-.142.8A3.7,3.7,0,0,1,3.256,50.809Zm3.577,3.779A2.632,2.632,0,1,1,9.465,57.22,2.635,2.635,0,0,1,6.833,54.588Zm2.675,5.081a.4.4,0,0,1-.394-.395V58.009A3.4,3.4,0,0,0,9.9,58v1.276A.4.4,0,0,1,9.508,59.669Zm2.84,0a.4.4,0,0,1-.394-.395V56.963l.789-.775v3.086a.4.4,0,0,1-.395.395Zm2.84,0a.4.4,0,0,1-.395-.395V56.132h.789v3.142A.4.4,0,0,1,15.188,59.669Zm2.84,0a.4.4,0,0,1-.395-.395V56.132h.789v3.142A.4.4,0,0,1,18.029,59.669Zm.8-4.343A2.128,2.128,0,1,1,20.954,53.2,2.13,2.13,0,0,1,18.826,55.325Zm3.84-4.517a2.076,2.076,0,0,1-.973,1.762A2.935,2.935,0,0,0,20.772,51l.408-1.268.617-.617a2.076,2.076,0,0,1,.869,1.69Zm2.188-4.155-7.063-7.063.7-.519,6.878,6.878ZM26.5,44.427l-.639.867-6.706-6.706.866-.639a1.177,1.177,0,0,1,1.541.116l4.822,4.822a1.178,1.178,0,0,1,.116,1.541Z" transform="translate(0.001 -36.907)" fill="#fff"/>
      <path id="Trazado_139" data-name="Trazado 139" d="M155.79,344.211a1.217,1.217,0,1,0-1.217,1.217A1.219,1.219,0,0,0,155.79,344.211Zm-1.628,0a.411.411,0,1,1,.411.411A.411.411,0,0,1,154.163,344.211Z" transform="translate(-145.108 -326.531)" fill="#fff"/>
      <path id="Trazado_140" data-name="Trazado 140" d="M328.628,317.145a1.217,1.217,0,1,0,1.217,1.217A1.219,1.219,0,0,0,328.628,317.145Zm0,1.628a.411.411,0,1,1,.411-.411A.411.411,0,0,1,328.628,318.773Z" transform="translate(-309.801 -302.072)" fill="#fff"/>
    </g>
  </g>
</svg>
