<svg xmlns="http://www.w3.org/2000/svg" width="42" height="56" viewBox="0 0 42 56">
  <g id="Grupo_389" data-name="Grupo 389" transform="translate(-1938 -1026)">
    <circle id="Elipse_134" data-name="Elipse 134" cx="21" cy="21" r="21" transform="translate(1938 1026)" fill="#ff7900"/>
    <path id="Polígono_1" data-name="Polígono 1" d="M16.681,7.4a5,5,0,0,1,8.638,0L37.614,28.481A5,5,0,0,1,33.295,36H8.705a5,5,0,0,1-4.319-7.519Z" transform="translate(1980 1082) rotate(180)" fill="#ff7900"/>
    <path id="servicio-de-reparacion" d="M33.142,14.776a1.083,1.083,0,0,0-1.069-.819A3.67,3.67,0,0,1,29.561,7.57a.924.924,0,0,0,.1-1.254,16.456,16.456,0,0,0-2.633-2.66.926.926,0,0,0-1.263.1,3.831,3.831,0,0,1-4.146.931,3.692,3.692,0,0,1-2.245-3.609A.922.922,0,0,0,18.559.11,16.588,16.588,0,0,0,14.819.1.926.926,0,0,0,14,1.051,3.7,3.7,0,0,1,11.72,4.6,3.842,3.842,0,0,1,7.6,3.661.926.926,0,0,0,6.35,3.556,16.525,16.525,0,0,0,3.661,6.214a.925.925,0,0,0,.1,1.263,3.684,3.684,0,0,1,.93,4.148,3.842,3.842,0,0,1-3.617,2.247.9.9,0,0,0-.96.816,16.663,16.663,0,0,0-.007,3.78,1.1,1.1,0,0,0,1.09.818,3.646,3.646,0,0,1,3.421,2.278,3.7,3.7,0,0,1-.93,4.111.923.923,0,0,0-.1,1.252,16.514,16.514,0,0,0,2.629,2.661.924.924,0,0,0,1.265-.1,3.825,3.825,0,0,1,4.144-.932,3.687,3.687,0,0,1,2.249,3.608.923.923,0,0,0,.815.971,16.551,16.551,0,0,0,3.74.01.925.925,0,0,0,.823-.952,3.7,3.7,0,0,1,2.275-3.545,3.837,3.837,0,0,1,4.117.936.928.928,0,0,0,1.254.1,16.546,16.546,0,0,0,2.689-2.659.923.923,0,0,0-.1-1.263,3.683,3.683,0,0,1-.931-4.146,3.721,3.721,0,0,1,3.4-2.253l.206.005a.925.925,0,0,0,.973-.815A16.59,16.59,0,0,0,33.142,14.776ZM16.624,26.205a9.583,9.583,0,1,1,8.228-4.669l-4.2-4.2A5.878,5.878,0,0,0,13.7,9.377a.665.665,0,0,0-.46.464.649.649,0,0,0,.184.635s2.072,2.088,2.765,2.781a.43.43,0,0,1,.062.308l-.006.046a13.249,13.249,0,0,1-.316,2.028l-.044.043-.046.047a13.059,13.059,0,0,1-2.059.32v0l-.035.009-.033,0a.443.443,0,0,1-.319-.135c-.721-.721-2.712-2.7-2.712-2.7a.677.677,0,0,0-.484-.215.658.658,0,0,0-.62.5,5.879,5.879,0,0,0,7.965,6.949L21.781,24.7A9.535,9.535,0,0,1,16.624,26.205Z" transform="translate(1942.376 1030.378)" fill="#fff"/>
  </g>
</svg>
