<svg xmlns="http://www.w3.org/2000/svg" width="42" height="42" viewBox="0 0 42 42">
  <g id="Grupo_386" data-name="Grupo 386" transform="translate(-36 -498)">
    <circle id="Elipse_110" data-name="Elipse 110" cx="21" cy="21" r="21" transform="translate(36 498)" fill="#ff7900"/>
    <g id="Grupo_285" data-name="Grupo 285" transform="translate(-1355.387 414.437)">
      <path id="Trazado_222" data-name="Trazado 222" d="M1413.874,116.574v1.989h-3.582V116.5c-1.1.191-1.371-.574-1.675-1.322a28.5,28.5,0,0,1,.109-22.5c.283-.679.645-1.171,1.546-1.069V89.563h3.6v2.053c1.117-.224,1.478.567,1.914,1.285.63,1.037,1.285,2.059,1.93,3.087a3.157,3.157,0,0,1,.36,2.734,17.722,17.722,0,0,0,0,10.684,3.154,3.154,0,0,1-.363,2.734q-1.064,1.692-2.122,3.388C1415.028,116.439,1415.028,116.439,1413.874,116.574Zm-6.5-12.526a27.939,27.939,0,0,0,2.23,10.9.766.766,0,0,0,.837.568c1.165-.035,2.332.011,3.5-.03a1.043,1.043,0,0,0,.73-.389c.768-1.145,1.486-2.324,2.221-3.491a2.2,2.2,0,0,0,.253-1.914,18.58,18.58,0,0,1-.007-11.238,2.266,2.266,0,0,0-.267-1.979c-.726-1.145-1.428-2.306-2.188-3.428a1.13,1.13,0,0,0-.787-.411c-1.116-.046-2.237.014-3.354-.035a.885.885,0,0,0-.981.677A28.026,28.026,0,0,0,1407.369,104.048Z" fill="#fff"/>
      <path id="Trazado_223" data-name="Trazado 223" d="M1421.079,195.045h6.609a25.881,25.881,0,0,0,.713,4.066,4.27,4.27,0,0,1-.6,3.7,3.309,3.309,0,0,1-3.807,2.07c-.59-.088-.9-.193-1.126-.783A27.472,27.472,0,0,1,1421.079,195.045Z" transform="translate(-12.619 -90.405)" fill="#fff"/>
      <path id="Trazado_224" data-name="Trazado 224" d="M1421.069,127.634a26.162,26.162,0,0,1,1.981-9.427c.068-.164.341-.243.521-.358.017-.011.047,0,.07,0,.9.009,1.948-.261,2.667.106.68.348.969,1.406,1.518,2.079a3.14,3.14,0,0,1,.555,3.483,8.4,8.4,0,0,0-.408,2.021c-.1.679-.143,1.366-.215,2.1Z" transform="translate(-12.611 -24.166)" fill="#fff"/>
    </g>
  </g>
</svg>
