<svg xmlns="http://www.w3.org/2000/svg" width="42" height="42" viewBox="0 0 42 42">
  <g id="Grupo_383" data-name="Grupo 383" transform="translate(-36 -309)">
    <circle id="Elipse_101" data-name="Elipse 101" cx="21" cy="21" r="21" transform="translate(36 309)" fill="#ff7900"/>
    <g id="Grupo_279" data-name="Grupo 279" transform="translate(45.81 319)">
      <path id="Trazado_174" data-name="Trazado 174" d="M13.969.375A11,11,0,1,0,20.646,5.5,11,11,0,0,0,13.969.375Zm7.068,13.279a10.265,10.265,0,1,1-1.026-7.789,10.265,10.265,0,0,1,1.026,7.789Z" transform="translate(0 0)" fill="#fff"/>
      <path id="Trazado_175" data-name="Trazado 175" d="M55.7,53.211a9.3,9.3,0,0,1,.88-.44.367.367,0,0,0-.293-.672,10.084,10.084,0,0,0-.951.476,9.433,9.433,0,0,0-4,4.515.367.367,0,1,0,.675.286A8.7,8.7,0,0,1,55.7,53.211Z" transform="translate(-48.978 -49.831)" fill="#fff"/>
      <path id="Trazado_176" data-name="Trazado 176" d="M316.2,331.136a.367.367,0,0,0-.481.194,8.7,8.7,0,0,1-3.695,4.166,8.977,8.977,0,0,1-1.824.792.367.367,0,0,0,.109.717.348.348,0,0,0,.108-.016,9.757,9.757,0,0,0,1.974-.857,9.434,9.434,0,0,0,4-4.515A.366.366,0,0,0,316.2,331.136Z" transform="translate(-296.506 -316.879)" fill="#fff"/>
      <path id="Trazado_177" data-name="Trazado 177" d="M105.478,106.455c.005,0,.011,0,.016-.007l.024-.025a6.978,6.978,0,0,0,2.468-6.445s0-.008,0-.012a6.855,6.855,0,0,0-2.466-4.307c-.009-.008-.014-.018-.024-.025l-.013-.005a6.976,6.976,0,0,0-6.852-1.088s-.008,0-.012,0l0,0a6.36,6.36,0,0,0-1.872,1.08c-.005,0-.011,0-.016.007l-.024.025a6.978,6.978,0,0,0-2.467,6.445s0,.008,0,.012a6.926,6.926,0,0,0,11.243,4.339Zm-2.919-3.715-.03.019-.313.183-.641.37a.362.362,0,0,0-.175.277,2.612,2.612,0,0,1-.715-.023.733.733,0,0,0-.332-.422l-.685-.4a.733.733,0,0,0-.534-.076,2.51,2.51,0,0,1-.247-.348,2.483,2.483,0,0,1-.176-.384.73.73,0,0,0,.2-.5v-.792a.726.726,0,0,0-.2-.5,2.593,2.593,0,0,1,.338-.625.345.345,0,0,0,.327-.014l.272-.157.013-.005.03-.019.313-.183.641-.37a.362.362,0,0,0,.175-.277,2.612,2.612,0,0,1,.712.023.733.733,0,0,0,.336.422l.683.4a.734.734,0,0,0,.537.077,2.587,2.587,0,0,1,.245.346,2.492,2.492,0,0,1,.176.384.729.729,0,0,0-.2.5v.792a.726.726,0,0,0,.2.5,2.593,2.593,0,0,1-.339.626.36.36,0,0,0-.326.014l-.268.155Zm-5.1,3.288,1.838-2.646.685.4-1.373,2.913Zm-2.54-5.656,3.254.273v.793l-3.258.272a6.233,6.233,0,0,1,0-1.338Zm9.861-4.362L102.916,98.7l-.685-.4,1.4-2.959a6.208,6.208,0,0,1,1.158.667Zm2.511,5.7-3.253-.271v-.793l3.258-.272a6.218,6.218,0,0,1,0,1.338Zm-1.944,3.892-1.707-2.456a3.313,3.313,0,0,0,.553-.956l2.977.249A6.223,6.223,0,0,1,105.351,105.6Zm1.156-7.675a6.216,6.216,0,0,1,.676,1.723L104.2,99.9a3.2,3.2,0,0,0-.228-.506,3.3,3.3,0,0,0-.323-.454l1.709-2.456A6.214,6.214,0,0,1,106.506,97.925ZM101.1,94.809a6.271,6.271,0,0,1,1.84.279L101.662,97.8a3.315,3.315,0,0,0-1.107,0l-1.276-2.707A6.2,6.2,0,0,1,101.1,94.809Zm-3.105.835a6.218,6.218,0,0,1,.6-.3l1.393,2.96-.352.2-.33.19-1.87-2.689A6.237,6.237,0,0,1,97.993,95.644Zm-1.126.838,1.707,2.458a3.317,3.317,0,0,0-.552.956l-2.977-.249A6.223,6.223,0,0,1,96.867,96.482Zm-1.156,7.675a6.218,6.218,0,0,1-.676-1.723l2.986-.249a3.213,3.213,0,0,0,.23.5,3.289,3.289,0,0,0,.322.453l-1.709,2.46A6.216,6.216,0,0,1,95.712,104.157Zm3.57,2.832,1.274-2.7a3.335,3.335,0,0,0,.564.054,3.275,3.275,0,0,0,.543-.051l1.275,2.7A6.222,6.222,0,0,1,99.282,106.989Zm4.348-.25-1.393-2.962.352-.2.33-.19,1.87,2.689a6.043,6.043,0,0,1-1.156.668Z" transform="translate(-89.987 -90.043)" fill="#fff"/>
      <path id="Trazado_178" data-name="Trazado 178" d="M223.78,221.88a1.466,1.466,0,1,0,.89.683A1.466,1.466,0,0,0,223.78,221.88Zm.33,1.606a.733.733,0,1,1-.709-.923.749.749,0,0,1,.191.025.733.733,0,0,1,.518.9Z" transform="translate(-212.278 -212.298)" fill="#fff"/>
      <path id="Trazado_179" data-name="Trazado 179" d="M188.539,43.036a.367.367,0,1,1-.367-.367A.367.367,0,0,1,188.539,43.036Z" transform="translate(-179.616 -40.836)" fill="#fff"/>
    </g>
  </g>
</svg>
