<svg xmlns="http://www.w3.org/2000/svg" width="42" height="42" viewBox="0 0 42 42">
  <g id="Grupo_384" data-name="Grupo 384" transform="translate(-36 -372)">
    <circle id="Elipse_106" data-name="Elipse 106" cx="21" cy="21" r="21" transform="translate(36 372)" fill="#ff7900"/>
    <g id="Grupo_283" data-name="Grupo 283" transform="translate(-112.999 463.523)">
      <g id="Grupo_282" data-name="Grupo 282" transform="translate(166.008 -85.337)">
        <path id="Trazado_190" data-name="Trazado 190" d="M268.313,45.083a.443.443,0,0,0,.422.464h0a.443.443,0,1,0-.422-.464Z" transform="translate(-263.777 -38.897)" fill="#fff"/>
        <path id="Trazado_191" data-name="Trazado 191" d="M170-85.337a2.2,2.2,0,0,0-1.568.649,2.2,2.2,0,0,0-.649,1.567,2.218,2.218,0,0,0,.245,1.012,1.341,1.341,0,0,0-.38.27l-1.227,1.227a1.44,1.44,0,0,0-.411,1.059v1.608a1.023,1.023,0,0,0,.84,1.011,1.332,1.332,0,0,0-.305,1.691,1.332,1.332,0,0,0,1.817.487l.2-.114v1.805l-1.528.882a1.321,1.321,0,0,0-.619.808,1.321,1.321,0,0,0,.132,1.009,1.321,1.321,0,0,0,.808.619,1.321,1.321,0,0,0,1.009-.132l.2-.114v1.805l-1.528.882a1.321,1.321,0,0,0-.619.808,1.321,1.321,0,0,0,.132,1.009,1.321,1.321,0,0,0,.808.619A1.321,1.321,0,0,0,168.359-65l.2-.114v1.805l-1.528.882a1.332,1.332,0,0,0-.487,1.817,1.332,1.332,0,0,0,1.817.487l.2-.114v1.268c-.043.037-.086.075-.127.116a2.219,2.219,0,0,0,0,3.135,2.219,2.219,0,0,0,3.135,0,2.219,2.219,0,0,0,0-3.135c-.041-.041-.083-.079-.127-.116V-61.9l1.528-.882a1.326,1.326,0,0,0,.275-.211,1.333,1.333,0,0,0,.212-1.606h0a1.332,1.332,0,0,0-1.817-.487l-.2.114V-66.78l1.528-.882a1.331,1.331,0,0,0,.276-.211,1.325,1.325,0,0,0,.343-.6,1.321,1.321,0,0,0-.132-1.009,1.321,1.321,0,0,0-.808-.619,1.321,1.321,0,0,0-1.009.132l-.2.114v-1.805l1.528-.882a1.327,1.327,0,0,0,.275-.211,1.333,1.333,0,0,0,.212-1.606h0a1.332,1.332,0,0,0-1.817-.487l-.2.114v-1.805l.657-.38h.841a1.064,1.064,0,0,0,.728-.281l.028-.027a1.012,1.012,0,0,0,.3-.723v-1.608a1.44,1.44,0,0,0-.411-1.059l-1.227-1.227a1.338,1.338,0,0,0-.381-.27,2.219,2.219,0,0,0,.246-1.012A2.219,2.219,0,0,0,170-85.337Zm-2.688,9.651a.444.444,0,0,1,.162-.606l1.077-.622h1.773l-2.407,1.39a.444.444,0,0,1-.606-.162Zm3.628,19.338a1.332,1.332,0,0,1-1.881,0,1.332,1.332,0,0,1,0-1.881,1.332,1.332,0,0,1,1.881,0A1.332,1.332,0,0,1,170.939-56.348Zm-.386-3.086a2.233,2.233,0,0,0-1.108,0v-1.318l1.108-.64Zm2.134-4.726a.444.444,0,0,1-.162.606l-4.607,2.66a.444.444,0,0,1-.606-.162.444.444,0,0,1,.07-.535.441.441,0,0,1,.092-.07l4.607-2.66a.444.444,0,0,1,.606.162Zm-2.134-.3-1.108.64v-1.805l1.108-.64Zm1.864-4.778a.44.44,0,0,1,.269.206h0a.44.44,0,0,1,.043.336.439.439,0,0,1-.206.269l-4.607,2.66a.44.44,0,0,1-.336.043.44.44,0,0,1-.27-.206.44.44,0,0,1-.043-.336.443.443,0,0,1,.115-.2.438.438,0,0,1,.091-.07l4.607-2.66a.44.44,0,0,1,.336-.043Zm-1.864-.1-1.108.64v-1.805l1.108-.64Zm2.134-4.573.384-.222-.384.222a.44.44,0,0,1,.043.336.439.439,0,0,1-.206.269l-4.607,2.66a.44.44,0,0,1-.336.043.44.44,0,0,1-.27-.206.44.44,0,0,1-.043-.336.444.444,0,0,1,.115-.2.437.437,0,0,1,.091-.07l4.607-2.66a.444.444,0,0,1,.606.162Zm-2.133-.3-1.108.64v-1.805l1.108-.64Zm2.4-5.768a.558.558,0,0,1,.152.432v1.608a.127.127,0,0,1-.04.1.184.184,0,0,1-.125.044h-5.879c-.017,0-.164,0-.164-.144v-.743h2.1a.442.442,0,0,0,.314-.13.442.442,0,0,0,.13-.313.443.443,0,0,0-.443-.443h-2.1a.549.549,0,0,1,.151-.411l1.227-1.227a.443.443,0,0,1,.343-.135h2.764a.444.444,0,0,1,.343.135Zm-1.622-3.135a1.333,1.333,0,0,1-.339.887h-1.982a1.334,1.334,0,0,1-.339-.887,1.321,1.321,0,0,1,.39-.94,1.321,1.321,0,0,1,.941-.39,1.331,1.331,0,0,1,1.33,1.33Z" transform="translate(-166.008 85.337)" fill="#fff"/>
        <path id="Trazado_192" data-name="Trazado 192" d="M246.473,537.321a.443.443,0,1,0,.422.464.443.443,0,0,0-.422-.464Z" transform="translate(-242.462 -509.715)" fill="#fff"/>
        <path id="Trazado_193" data-name="Trazado 193" d="M246.473-45.336a.443.443,0,0,0-.464.422.443.443,0,0,0,.422.464.442.442,0,0,0,.335-.129.442.442,0,0,0,.129-.292.443.443,0,0,0-.422-.464Z" transform="translate(-242.462 47.11)" fill="#fff"/>
      </g>
    </g>
  </g>
</svg>
