<svg xmlns="http://www.w3.org/2000/svg" viewBox="0 0 45.46 53.34"><defs><style>.cls-1{fill:none;}.cls-2{fill:#959595;}</style></defs><title>ic_coche_4</title><g id="Capa_2" data-name="Capa 2"><g id="Capa_1-2" data-name="Capa 1"><path class="cls-1" d="M22.29,17.67c.21.93,2.07,9.6,4.13,19.26,1.35,6.33,2.57,11.59,3.84,16.41H45.46V7.8c-6,1.34-17.3,5-20.69,6.72C22.46,15.69,22,16.3,22.29,17.67Z"/><path class="cls-1" d="M.32,52.72a11.53,11.53,0,0,1,1.25-3.4,18.16,18.16,0,0,1,3.61-4.07A30.92,30.92,0,0,1,8.9,42.64a6.56,6.56,0,0,1,1.56-.95l.15,0q0-11,0-22.07c.22-6.5,0-13,0-19.57H0V53.34H.25C.27,53.13.29,52.92.32,52.72Z"/><path class="cls-2" d="M10.61,53v.35h5.18l0-1,1.45,1h13C29,48.52,27.77,43.27,26.42,36.93c-2.06-9.66-3.92-18.33-4.13-19.26-.31-1.37.17-2,2.48-3.15C28.15,12.8,39.5,9.14,45.46,7.8V0H10.56c0,6.53.26,13.08,0,19.57q0,11,0,22.07l-.15,0a6.56,6.56,0,0,0-1.56.95,30.92,30.92,0,0,0-3.71,2.61,18.16,18.16,0,0,0-3.61,4.07,11.53,11.53,0,0,0-1.25,3.4c0,.21,0,.42-.08.62H10Z"/></g></g></svg>