<svg xmlns="http://www.w3.org/2000/svg" viewBox="0 0 45.46 53.34"><defs><style>.cls-1{fill:none;}.cls-2{fill:#959595;}</style></defs><title>ic_coche_7</title><g id="Capa_2" data-name="Capa 2"><g id="Capa_1-2" data-name="Capa 1"><path class="cls-1" d="M15.9,6.32c.45,30.12.63,37,1,37.35.69.64,10.3,6.59,10.65,6.59s.39-1.89.39-4.8h0c0-4.85-.37-12.54-1-19-.7-7.28-2.26-19-2.94-22a8.2,8.2,0,0,0-2.63-2.2C20.24,1.58,18.88.66,17.95,0H15.8Z"/><path class="cls-1" d="M10.59,42.94c-.41-.09-.52-.49-.73-1a6.05,6.05,0,0,1-.37-2.31c-.09-1.38-.12-6.1,0-8a7.52,7.52,0,0,1,.25-2.51A2.74,2.74,0,0,1,10.46,28l.14-.11q0-13.92,0-27.85H9.12L9,.07C8,.63,6.33,1.47,5.14,2A27.93,27.93,0,0,1,1.88,3.16c-.75.2-.88.24-1.18.2a.71.71,0,0,1-.56-.27A.87.87,0,0,1,0,2.4,22.64,22.64,0,0,1,.18,0H0V53.34H10.6C10.6,49.87,10.58,46.41,10.59,42.94Z"/><path class="cls-2" d="M45.46,47.79,42,44.55l-.4-6.68c-.31-5.27-1-8.2-3.22-13.93A215.46,215.46,0,0,1,30.4,0H17.95c.94.66,2.3,1.58,3.39,2.28A8.2,8.2,0,0,1,24,4.48c.68,3.06,2.24,14.74,2.94,22,.62,6.42,1,14.1,1,19h0c0,2.91-.11,4.8-.39,4.8s-10-5.95-10.65-6.59c-.34-.32-.52-7.23-1-37.35L15.8,0H10.61q0,13.93,0,27.85l-.14.11a2.74,2.74,0,0,0-.76,1.15,7.52,7.52,0,0,0-.25,2.51c-.09,1.86-.06,6.59,0,8a6.05,6.05,0,0,0,.37,2.31c.21.55.32,1,.73,1,0,3.47,0,6.93,0,10.4H45.46Z"/></g></g></svg>