<svg xmlns="http://www.w3.org/2000/svg" viewBox="0 0 45.46 53.85"><defs><style>.cls-1{fill:#959595;}.cls-2{fill:none;}.cls-3{fill:#ff7900;}</style></defs><title>ic_coche_14_naranja</title><g id="Capa_2" data-name="Capa 2"><g id="Capa_1-2" data-name="Capa 1"><path class="cls-1" d="M21.56,53.85h0Z"/><path class="cls-2" d="M21.56,53.85h23.9V52.53c-3.34.43-6.69.73-10,1C30.86,53.7,26.22,53.84,21.56,53.85Z"/><path class="cls-2" d="M0,53.85H20.71A153.4,153.4,0,0,1,0,52.59Z"/><path class="cls-2" d="M23.05,21.15c-9.84,0-16.39-.86-23.05-3.37V42.26c5,1.31,10.35,1.83,18.6,2.09,11.36.36,19.53-.22,26.85-2.15V17.77C39,20.29,32.93,21.12,23.05,21.15Z"/><path class="cls-3" d="M0,17.78c6.66,2.51,13.21,3.41,23.05,3.37S39,20.29,45.46,17.77V0H0Z"/><path class="cls-3" d="M18.6,44.34C10.35,44.08,5,43.57,0,42.26V52.59a153.4,153.4,0,0,0,20.71,1.27h.85c4.65,0,9.3-.15,13.89-.33,3.31-.25,6.66-.56,10-1V42.2C38.14,44.12,30,44.7,18.6,44.34Z"/></g></g></svg>