<svg xmlns="http://www.w3.org/2000/svg" viewBox="0 0 45.46 53.34"><defs><style>.cls-1{fill:none;}.cls-2{fill:#ff7900;}</style></defs><title>ic_coche_9_naranja</title><g id="Capa_2" data-name="Capa 2"><g id="Capa_1-2" data-name="Capa 1"><path class="cls-1" d="M27.13.26C26,1,24.33,2.21,23.37,2.83L21.6,4,21,7.47a281.15,281.15,0,0,0-3.29,31.71c-.12,3.19-.22,7-.25,8.48,0,2.63,0,2.66.56,2.54a57.42,57.42,0,0,0,5.76-3.4L29,43.52l.17-8.44c.25-11.83.4-23.11.41-29.89V2.46h0a24.62,24.62,0,0,0,0-2.46h-2Z"/><path class="cls-1" d="M44.76,3.36a2.68,2.68,0,0,1-1.18-.2A27.92,27.92,0,0,1,40.33,2C39.14,1.47,37.51.63,36.47.07L36.34,0H34.8l0,27.82L35,28a2.74,2.74,0,0,1,.76,1.15A7.52,7.52,0,0,1,36,31.63c.09,1.86.06,6.59,0,8a6.05,6.05,0,0,1-.37,2.31c-.22.56-.32,1-.76,1.05q0,5.07,0,10.13v.25H45.46V2.65a.8.8,0,0,1-.14.44A.71.71,0,0,1,44.76,3.36Z"/><path class="cls-2" d="M29.53,2.46h0V5.19c0,6.78-.16,18.06-.41,29.89L29,43.52l-5.16,3.29A57.42,57.42,0,0,1,18,50.21c-.6.11-.6.08-.56-2.54,0-1.47.13-5.29.25-8.48A281.15,281.15,0,0,1,21,7.47L21.6,4l1.76-1.13C24.33,2.21,26,1,27.13.26L27.5,0H15.23c-.24,1-.43,1.77-.58,2.31-1,3.85-3.42,10.93-5.31,15.73C5,29,3.55,34.53,3.55,40c0,4.1-.12,4.43-3.55,7.65v5.65H34.9v-.25q0-5.06,0-10.13c.44-.07.54-.49.76-1.05A6.05,6.05,0,0,0,36,39.59c.09-1.38.12-6.1,0-8a7.52,7.52,0,0,0-.25-2.51A2.74,2.74,0,0,0,35,28l-.17-.15L34.8,0H29.49A24.62,24.62,0,0,1,29.53,2.46Zm5.31,32.21c0,.17,0,.35,0,.51,0,.35,0,.76,0,1.14Z"/></g></g></svg>