<svg xmlns="http://www.w3.org/2000/svg" viewBox="0 0 45.46 53.85"><defs><style>.cls-1{fill:none;}.cls-2{fill:#959595;}</style></defs><title>ic_coche_1</title><g id="Capa_2" data-name="Capa 2"><g id="Capa_1-2" data-name="Capa 1"><path class="cls-1" d="M17,25c-.63,1.74-.72,3-.65,9.33.09,7.73.33,8.76,1.73,7.89.65-.41,7.7-11.65,12.54-20,3.26-5.64,4.3-6.94,7.42-9.21,2.64-1.92,2.9-2.25,3.44-4.52a3.72,3.72,0,0,0,.14-1.14h0c-.08-.91-.85-1.16-2.78-1.15-2.63,0-4.4.77-9.22,4C23,14.55,19.09,19.18,17,25Z"/><path class="cls-1" d="M12.39,30.13C13.92,19.86,21.48,11.82,30,6.45a60.27,60.27,0,0,1,15.51-5.3V0H0V53.85H10.56C10.52,45.89,10.76,37.95,12.39,30.13Z"/><path class="cls-2" d="M12.39,30.13c-1.62,7.82-1.86,15.76-1.82,23.72H45.46V1.15A60.27,60.27,0,0,0,30,6.45C21.48,11.82,13.92,19.86,12.39,30.13ZM41.59,7.36h0a3.72,3.72,0,0,1-.14,1.14c-.54,2.27-.8,2.6-3.44,4.52-3.12,2.27-4.16,3.57-7.42,9.21-4.84,8.36-11.88,19.6-12.54,20-1.4.87-1.64-.16-1.73-7.89-.07-6.38,0-7.59.65-9.33C19.09,19.18,23,14.55,29.59,10.19c4.83-3.21,6.59-4,9.22-4C40.74,6.2,41.51,6.45,41.59,7.36Z"/></g></g></svg>