<svg xmlns="http://www.w3.org/2000/svg" viewBox="0 0 45.46 53.85"><defs><style>.cls-1{fill:none;}.cls-2{fill:#ff7900;}</style></defs><title>ic_coche_3_naranja</title><g id="Capa_2" data-name="Capa 2"><g id="Capa_1-2" data-name="Capa 1"><path class="cls-1" d="M18,8.35c9.89,6.37,15.74,17.8,16.12,29.45q.18,8,.3,16.06h11V0H0V1.16A43.91,43.91,0,0,1,7,3.09,23.66,23.66,0,0,1,18,8.35Z"/><path class="cls-1" d="M4.57,10.18a9.29,9.29,0,0,0,2.67,2.68c2.85,2,4.32,3.69,6.88,8.08,3,5.16,10.75,17.92,12.09,19.9,2.32,3.43,3,1.83,3-7.14V31.5h0c0-4.52-.13-4.91-1.19-7.65a27.42,27.42,0,0,0-3-5.46A47.51,47.51,0,0,0,15,9.54C10.91,6.92,9.12,6.19,6.73,6.19a7.5,7.5,0,0,0-2.49.26C3.78,6.9,4,8.9,4.57,10.18Z"/><path class="cls-2" d="M34.43,53.85q-.12-8-.3-16.06C33.75,26.15,27.9,14.72,18,8.35A23.66,23.66,0,0,0,7,3.09,43.91,43.91,0,0,0,0,1.16V53.85ZM6.73,6.19c2.39,0,4.18.73,8.32,3.35a47.51,47.51,0,0,1,10,8.85,27.42,27.42,0,0,1,3,5.46c1.06,2.73,1.19,3.13,1.19,7.65h0v2.21c0,9-.73,10.57-3,7.14-1.34-2-9.09-14.73-12.09-19.9-2.56-4.39-4-6.12-6.88-8.08a9.29,9.29,0,0,1-2.67-2.68C4,8.9,3.78,6.9,4.24,6.45A7.5,7.5,0,0,1,6.73,6.19Z"/></g></g></svg>