<svg xmlns="http://www.w3.org/2000/svg" viewBox="0 0 45.46 53.34"><defs><style>.cls-1{fill:none;}.cls-2{fill:#959595;}</style></defs><title>ic_coche_12</title><g id="Capa_2" data-name="Capa 2"><g id="Capa_1-2" data-name="Capa 1"><path class="cls-1" d="M20.93,45.3a31.5,31.5,0,0,0,6.54-1.05c.18-.17.64-13.77,1.17-34.69.06-2.49.1-4.1.1-5.13h0c0-1.71-.12-1.8-.41-1.69S25.5,4,22.63,5.27C18.32,7.2,17.42,7.7,17.42,8.16c0,4.68.65,24.36.92,29.55C18.74,45.47,18.68,45.3,20.93,45.3Z"/><path class="cls-1" d="M34.92,33.32c.05.33.05.74.11,2,.09,1.86.06,6.6,0,8,0,.61-.07,1-.11,1.28,0,2.93,0,5.87,0,8.8H45.46V0H34.9Q34.9,16.66,34.92,33.32Z"/><path class="cls-2" d="M0,53.34H34.87c0-2.93,0-5.87,0-8.8,0-.3.07-.67.11-1.28.09-1.38.12-6.12,0-8-.06-1.22-.06-1.63-.11-2q0-16.66,0-33.32H0ZM22.63,5.27C25.5,4,28.06,2.84,28.33,2.74s.41,0,.41,1.69h0c0,1,0,2.63-.1,5.13-.53,20.92-1,34.53-1.17,34.69a31.5,31.5,0,0,1-6.54,1.05c-2.25,0-2.19.18-2.59-7.58-.27-5.19-.89-24.87-.92-29.55C17.42,7.7,18.32,7.2,22.63,5.27Z"/></g></g></svg>