<svg xmlns="http://www.w3.org/2000/svg" viewBox="0 0 45.46 53.34"><defs><style>.cls-1{fill:none;}.cls-2{fill:#ff7900;}</style></defs><title>ic_coche_6_naranja</title><g id="Capa_2" data-name="Capa 2"><g id="Capa_1-2" data-name="Capa 1"><path class="cls-1" d="M34.77,41.62l.24.07a6.56,6.56,0,0,1,1.56.94,30.93,30.93,0,0,1,3.71,2.6,18.16,18.16,0,0,1,3.61,4.08,11.54,11.54,0,0,1,1.25,3.4c0,.21,0,.42.08.62h.23V0h-11C34.65,13.87,34.73,27.75,34.77,41.62Z"/><path class="cls-1" d="M15.35,53.34c2.34-9.79,8.06-36,8.06-37h0C23.41,15.09,11,10.53.88,8L0,7.8V53.34Z"/><path class="cls-2" d="M23.41,16.3h0c0,1.06-5.73,27.24-8.06,37H28.23c.61-.42,1.08-.72,1.17-.76,0,.25,0,.51.06.76H34.8V53l.64.38h9.79c0-.21,0-.42-.08-.62a11.54,11.54,0,0,0-1.25-3.4,18.16,18.16,0,0,0-3.61-4.08,30.93,30.93,0,0,0-3.71-2.6A6.56,6.56,0,0,0,35,41.7l-.24-.07c0-13.88-.13-27.75-.33-41.62H0V7.8L.88,8C11,10.53,23.41,15.09,23.41,16.3Z"/></g></g></svg>