<svg xmlns="http://www.w3.org/2000/svg" viewBox="0 0 45.46 53.85"><defs><style>.cls-1{fill:none;}.cls-2{fill:#959595;}</style></defs><title>ic_coche_13</title><g id="Capa_2" data-name="Capa 2"><g id="Capa_1-2" data-name="Capa 1"><path class="cls-1" d="M38.79,44.51a18.2,18.2,0,0,0-4.41-2.78c-5.19-2.54-8.05-4.51-11.13-7.63C20.67,31.48,19,28.75,17,23.79c-.43-1.07-.48-1.09-.87-.4a9.08,9.08,0,0,0-.7,1.9,21.34,21.34,0,0,0-.31,3.48A12.15,12.15,0,0,0,25.24,41.34a19.42,19.42,0,0,1,4.38,1.49c2.48,1.36,7.5,3,8.83,2.83l1.14-.11Z"/><path class="cls-1" d="M11.08,27.54Q10.89,13.77,10.79,0H0V53.85H45.46V52.59a87.48,87.48,0,0,1-21-5.42C16.31,44.34,11.06,36,11.08,27.54Z"/><path class="cls-2" d="M33.65,37.6c-8.94-4.4-9-4.51-5.91-11,1.4-2.94,3.29-7.33,4.2-9.74a21.68,21.68,0,0,1,1.95-4.39c.16,0,2.66,1.2,5.56,2.66a61.93,61.93,0,0,0,6,2.66V0H10.79q.11,13.77.29,27.54c0,8.42,5.23,16.8,13.33,19.62a87.48,87.48,0,0,0,21,5.42V42.26A62.25,62.25,0,0,1,33.65,37.6ZM20.59,1.2A6.62,6.62,0,0,1,22.54.48C24,.23,24.65.79,24.62,2.66h0a26.09,26.09,0,0,1-.78,4.89C22.61,13,21.39,15.75,21,13.93S20,7,19.86,4.49L19.7,1.74Zm9,41.63a19.42,19.42,0,0,0-4.38-1.49A12.15,12.15,0,0,1,15.13,28.77a21.34,21.34,0,0,1,.31-3.48,9.08,9.08,0,0,1,.7-1.9c.39-.69.44-.67.87.4,2,5,3.66,7.68,6.24,10.3,3.08,3.13,5.94,5.09,11.13,7.63a18.2,18.2,0,0,1,4.41,2.78l.8,1-1.14.11C37.13,45.8,32.11,44.19,29.63,42.83Z"/></g></g></svg>