<svg xmlns="http://www.w3.org/2000/svg" viewBox="0 0 42 42"><defs><style>.cls-1{fill:#959595;}</style></defs><title>ic_rueda</title><g id="Capa_2" data-name="Capa 2"><g id="Capa_1-2" data-name="Capa 1"><g id="Grupo_272" data-name="Grupo 272"><g id="Grupo_259" data-name="Grupo 259"><g id="Grupo_258" data-name="Grupo 258"><g id="Grupo_257" data-name="Grupo 257"><path id="Trazado_182" data-name="Trazado 182" class="cls-1" d="M21,7A14,14,0,1,0,35,21,14,14,0,0,0,21,7Zm7.16,5.23a.88.88,0,0,1,1.24-.06h0A12.18,12.18,0,0,1,33,18.5a.88.88,0,0,1-.46,1,6.3,6.3,0,0,1-2.85.66,4.56,4.56,0,0,1-3.17-1.06c-1.48-1.48-.86-4,1.66-6.83ZM13.84,29.91a.87.87,0,0,1-.61.29h0a.87.87,0,0,1-.6-.24A12.18,12.18,0,0,1,9,23.63a.88.88,0,0,1,.46-1c2-1,4.78-.83,6,.4C17,24.56,16.36,27.11,13.84,29.91Zm1.66-10.84a4.56,4.56,0,0,1-3.17,1.06,6.31,6.31,0,0,1-2.85-.66.88.88,0,0,1-.46-1,12.18,12.18,0,0,1,3.57-6.33.84.84,0,0,1,.64-.24.87.87,0,0,1,.61.29C16.36,15,17,17.58,15.49,19.07Zm9.23,13.6a12.24,12.24,0,0,1-7.46,0,.88.88,0,0,1-.61-.89c.22-3.15,2.08-5.52,4.34-5.52s4.12,2.38,4.34,5.52A.88.88,0,0,1,24.73,32.67ZM17.5,21A3.5,3.5,0,1,1,21,24.5,3.5,3.5,0,0,1,17.5,21Zm7.84-10.7c-.22,3.15-2.08,5.52-4.34,5.52s-4.12-2.38-4.33-5.53a.87.87,0,0,1,.61-.89,12.28,12.28,0,0,1,7.46,0,.87.87,0,0,1,.6.89ZM33,23.5a12.18,12.18,0,0,1-3.57,6.33.87.87,0,0,1-.6.24h0a.87.87,0,0,1-.61-.29C25.64,27,25,24.43,26.51,22.94c1.23-1.23,4-1.42,6-.4a.88.88,0,0,1,.45.95Z"/><path id="Trazado_183" data-name="Trazado 183" class="cls-1" d="M21,0A21,21,0,1,0,42,21,21,21,0,0,0,21,0Zm0,36.75A15.75,15.75,0,1,1,36.75,21,15.75,15.75,0,0,1,21,36.75Z"/></g></g></g></g></g></g></svg>